<svg data-v-0dd9719b="" version="1.0" xmlns="http://www.w3.org/2000/svg" xmlns:xlink="http://www.w3.org/1999/xlink" width="680" height="500" viewBox="0 0 340.000000 250.000000" preserveAspectRatio="xMidYMid meet" color-interpolation-filters="sRGB" style="">   <g data-v-0dd9719b="" fill="#333" class="iconlettersvg-g iconlettersvg" transform="translate(61.07493591308594,92.32265767178251)"><g><g class="tp-name" transform="translate(0,0)"><g transform="scale(0.9800000000000004)"><g transform="translate(0, 0)"><g class="name-imagesvg"><g><rect fill="#333" fill-opacity="0" stroke-width="2" x="0" y="0" width="55.884260342643415" height="45" class="image-rect"></rect> <svg x="0" y="0" width="55.884260342643415" height="45" filtersec="colorsb3940564817" class="image-svg-svg primary" style="overflow: visible;"><svg xmlns="http://www.w3.org/2000/svg" viewBox="0 0 345.46 278.17"><path d="M172.76 278.17a35.27 35.27 0 0 1-29.47-15.82L5.87 54.81a35.31 35.31 0 0 1 58.89-39l137.41 207.55a35.32 35.32 0 0 1-29.41 54.81z" fill="#c8e107" opacity=".8"></path><path d="M172.7 278.17a35.32 35.32 0 0 1-29.41-54.81L280.7 15.82a35.31 35.31 0 1 1 58.88 39L202.17 262.35a35.27 35.27 0 0 1-29.47 15.82z" fill="#ff973c" opacity=".8"></path></svg></svg> <!----></g></g></g><g transform="translate(60.884260342643415, 0)"><g class="name-imagesvg"><g><rect fill="#333" fill-opacity="0" stroke-width="2" x="0" y="0" width="49.808024292939784" height="45" class="image-rect"></rect> <svg x="0" y="0" width="49.808024292939784" height="45" filtersec="colorsb1898491284" class="image-svg-svg primary" style="overflow: visible;"><svg xmlns="http://www.w3.org/2000/svg" viewBox="0 0 307.88 278.16"><path d="M196 278.16h-84A112.06 112.06 0 0 1 0 166.23a35.31 35.31 0 0 1 70.62 0 41.36 41.36 0 0 0 41.32 41.31h84a41.35 41.35 0 0 0 41.31-41.31 35.31 35.31 0 0 1 70.62 0A112.05 112.05 0 0 1 196 278.16z" fill="#32a8e7" opacity=".8"></path><path d="M272.57 201.54a35.31 35.31 0 0 1-35.31-35.31v-54.29A41.36 41.36 0 0 0 196 70.62h-84a41.37 41.37 0 0 0-41.32 41.32v54.29a35.31 35.31 0 0 1-70.62 0v-54.29A112.06 112.06 0 0 1 111.94 0h84a112.06 112.06 0 0 1 111.94 111.94v54.29a35.31 35.31 0 0 1-35.31 35.31z" fill="#22b678" opacity=".8"></path></svg></svg> <!----></g></g></g><g transform="translate(115.6922846355832, 0)"><g class="name-imagesvg"><g><rect fill="#333" fill-opacity="0" stroke-width="2" x="0" y="0" width="11.424719879772855" height="45" class="image-rect"></rect> <svg x="0" y="0" width="11.424719879772855" height="45" filtersec="colorsb1645040806" class="image-svg-svg primary" style="overflow: visible;"><svg xmlns="http://www.w3.org/2000/svg" viewBox="0 0 70.62 278.16"><path d="M35.31 278.16A35.31 35.31 0 0 1 0 242.85V35.31a35.31 35.31 0 0 1 70.62 0v207.54a35.31 35.31 0 0 1-35.31 35.31z" fill="#ea79a8" opacity=".8"></path></svg></svg> <!----></g></g></g><g transform="translate(132.11700451535606, 0)"><g class="name-imagesvg"><g><rect fill="#333" fill-opacity="0" stroke-width="2" x="0" y="0" width="44.33025970961157" height="45" class="image-rect"></rect> <svg x="0" y="0" width="44.33025970961157" height="45" filtersec="colorsb9649407040" class="image-svg-svg primary" style="overflow: visible;"><svg xmlns="http://www.w3.org/2000/svg" viewBox="0 0 274 278.16"><path d="M192.16 278.16h-86.23A106 106 0 0 1 0 172.23a35.31 35.31 0 0 1 70.62 0 35.35 35.35 0 0 0 35.31 35.31h86.23a35.2 35.2 0 0 0 23.25-8.74A35.31 35.31 0 0 1 262 251.91a105.88 105.88 0 0 1-69.84 26.25z" fill="#f8dc1b" opacity=".8"></path><path d="M35.31 207.54A35.31 35.31 0 0 1 0 172.23v-66.3A106 106 0 0 1 105.93 0h86.23a105.16 105.16 0 0 1 62.39 20.32 35.31 35.31 0 1 1-41.63 57.05 34.91 34.91 0 0 0-20.76-6.75h-86.23a35.35 35.35 0 0 0-35.31 35.31v66.3a35.31 35.31 0 0 1-35.31 35.31z" fill="#ea79a8" opacity=".8"></path></svg></svg> <!----></g></g></g><g transform="translate(181.44726422496763, 0)"><g class="name-imagesvg"><g><rect fill="#333" fill-opacity="0" stroke-width="2" x="0" y="0" width="40.848791524328654" height="45" class="image-rect"></rect> <svg x="0" y="0" width="40.848791524328654" height="45" filtersec="colorsb3266113548" class="image-svg-svg primary" style="overflow: visible;"><svg xmlns="http://www.w3.org/2000/svg" viewBox="0 0 252.5 278.16"><path d="M187.9 174.39H38a35.31 35.31 0 0 1 0-70.62h149.9a35.31 35.31 0 1 1 0 70.62z" fill="#ea79a8" opacity=".8"></path><path d="M217.19 278.16H35.31A35.31 35.31 0 0 1 0 242.85V35.31A35.31 35.31 0 0 1 35.31 0h181.88a35.31 35.31 0 0 1 0 70.62H70.62v136.92h146.57a35.31 35.31 0 0 1 0 70.62z" fill="#f8dc1b" opacity=".8"></path></svg></svg> <!----></g></g></g></g></g></g> <g data-gra="path-slogan" fill-rule="evenodd" class="tp-slogan" fill="#333" transform="translate(5,50.10005187988281)"><rect fill="none" x="0" height="0" y="7.148137092590332" width="70.65497970581055"></rect> <rect fill="none" height="0" y="7.148137092590332" width="70.65497970581055" x="137.19514846801758"></rect> <g transform="translate(73.65497970581055,0)"><g transform="scale(1.4800000000000004)"><path d="M 10.7 9.4 L 9.7 9.2 A 0.6 0.6 0 0 1 9.2 8.6 L 8.4 0.8 A 1 1 0 0 1 8.4 0.5 A 0.6 0.6 0 0 1 8.6 0.1 A 0.7 0.7 0 0 1 9.2 0 L 9.5 0.1 A 0.8 0.8 0 0 1 10 0.4 A 0.8 0.8 0 0 1 10.2 0.9 L 10.4 4.7 A 51.9 51.9 0 0 1 10.5 6.1 A 32.4 32.4 0 0 0 10.6 7.6 L 10.7 7.7 A 47.8 47.8 0 0 0 11.3 6.3 A 58.8 58.8 0 0 1 12 5 L 13.6 1.7 Q 14 1 14.7 1.1 A 0.6 0.6 0 0 1 15.4 1.9 A 1.4 1.4 0 0 1 15.2 2.3 L 11.6 8.9 A 0.8 0.8 0 0 1 11.2 9.3 A 0.9 0.9 0 0 1 10.7 9.4 Z M 26.2 1.1 L 31.5 0.1 A 0.6 0.6 0 0 1 32.3 0.7 A 0.6 0.6 0 0 1 31.8 1.5 L 30 1.9 L 31.3 8.3 A 0.8 0.8 0 0 1 30.6 9.3 A 0.8 0.8 0 0 1 29.5 8.6 L 28.3 2.2 L 26.5 2.6 A 0.6 0.6 0 0 1 25.7 2 A 0.6 0.6 0 0 1 26.2 1.1 Z M 21.3 2.3 L 21.3 9.4 A 0.8 0.8 0 0 1 20.4 10.3 Q 19.5 10.3 19.5 9.4 L 19.5 2.3 Q 19.5 1.4 20.4 1.4 Q 21.3 1.4 21.3 2.3 Z M 2.3 4 L 0.4 3.2 A 0.6 0.6 0 0 1 0.1 2.4 A 0.5 0.5 0 0 1 0.9 2.1 L 2.8 2.9 A 0.6 0.6 0 0 1 3.1 3.7 Q 2.9 4.3 2.3 4 Z M 40.5 3.2 L 38.7 4 A 0.6 0.6 0 0 1 37.8 3.7 A 0.5 0.5 0 0 1 38.2 2.9 L 40 2.1 A 0.6 0.6 0 0 1 40.9 2.4 Q 41.1 3 40.5 3.2 Z"></path></g></g></g></g><defs v-gra="od"></defs></svg>